<svg id="Capa_1" data-name="Capa 1" xmlns="http://www.w3.org/2000/svg" xmlns:xlink="http://www.w3.org/1999/xlink" viewBox="0 0 341.13 121.22"><defs><style>.cls-1{fill:none;}.cls-2{font-size:43.08px;font-family:Poppins-SemiBold, Poppins;font-weight:600;letter-spacing:0.17em;}.cls-2,.cls-4,.cls-6{fill:#211915;}.cls-3{clip-path:url(#clip-path);}.cls-5{clip-path:url(#clip-path-2);}.cls-6{font-size:18px;font-family:Poppins-Light, Poppins;font-weight:300;letter-spacing:0.05em;}</style><clipPath id="clip-path"><rect class="cls-1" x="170.57" width="170.55" height="62.3"/></clipPath><clipPath id="clip-path-2"><rect class="cls-1" width="170.55" height="62.3" transform="translate(170.55 62.3) rotate(-180)"/></clipPath></defs><title>4</title><text class="cls-2" transform="translate(15.73 84.5)">AYMUEBLES</text><g class="cls-3"><path class="cls-4" d="M279.65,38l3.86-1.6,1.75-.69q.83-.33,1.65-.63c2.18-.82,4.37-1.56,6.54-2.19a51.31,51.31,0,0,1,12.82-2.17,29.06,29.06,0,0,1,11.56,1.82A27.59,27.59,0,0,1,326.49,38c4.64,4.34,6.61,9.45,6.82,13,0,.45.1.86.08,1.26l-.05,1.1c0,.34,0,.66-.06.94l-.15.77-.27,1.41.29-1.4.17-.77c0-.29,0-.6.07-.95l.07-1.1c0-.39,0-.81-.07-1.26-.15-3.53-2-8.72-6.67-13.17A27.84,27.84,0,0,0,318,32.06a29.45,29.45,0,0,0-11.74-2,51.4,51.4,0,0,0-13,2q-3.31.91-6.64,2.11l-1.67.61-1.58.59-2.8,1.1-1.26.45-.9.34-.07,0,0-.07.08-.14.19-.3.4-.67a11.54,11.54,0,0,0,1.28-3.53,16.37,16.37,0,0,0,.22-2.44,18.21,18.21,0,0,0-.25-2.81,19.67,19.67,0,0,0-1.84-5.79,24.07,24.07,0,0,0-3.74-5.57A22.47,22.47,0,0,0,269,11.35a33.13,33.13,0,0,0-7.19-3,66.83,66.83,0,0,0-16.52-2.21c-22.82-.52-50-.83-79.27-.75-30.43.09-58.71.64-82.23,1.29l-8.59.25c-2.81.09-5.57.23-8.25.54-5.35.6-10.47,2-14.55,4.56a20.6,20.6,0,0,0-8.22,10,11.75,11.75,0,0,0-.46,1.38c-.06.23-.13.46-.19.68l-.14.69a10.69,10.69,0,0,0-.19,1.35l-.06.67a1.76,1.76,0,0,0,0,.28v.24a10.47,10.47,0,0,0,.73,3.83l0,.09.13.36c0,.11.14.31,0,.16l-.63-.41a11.66,11.66,0,0,0-1.27-.78c-.45-.23-.87-.49-1.34-.69l-1.42-.6a28.64,28.64,0,0,0-6.87-1.59A27.82,27.82,0,0,0,19.38,29.5a25.82,25.82,0,0,0-5.42,3,23.69,23.69,0,0,0-2.27,1.92c-.35.35-.71.67-1,1l-.92,1.09a25.79,25.79,0,0,0-4.85,9.22,27.72,27.72,0,0,0-1.13,8.52,24.42,24.42,0,0,0,1,6.43c.13.42.24.83.35,1.21s.28.71.4,1,.24.61.34.88l.35.71.64,1.29-.62-1.3-.33-.71-.33-.89-.38-1c-.11-.38-.22-.79-.34-1.22a25.06,25.06,0,0,1-.85-6.4,27.47,27.47,0,0,1,1.26-8.43,25.34,25.34,0,0,1,4.91-9L11,35.79c.33-.34.68-.65,1-1A25.3,25.3,0,0,1,14.29,33a25.68,25.68,0,0,1,5.34-2.85,26.83,26.83,0,0,1,19.38,0l1.84.84c.61.28,1.24.71,1.87,1.07a20.4,20.4,0,0,1,1.83,1.18l.91.61c.22.19.15,0,.15-.06v-.33a28,28,0,0,1-.71-2.76c-.09-.51-.19-1-.28-1.57s0-1,0-1.51v-.39a1.78,1.78,0,0,1,.05-.34l.1-.59A7.4,7.4,0,0,1,45,25.1l.16-.6.22-.6a9.59,9.59,0,0,1,.51-1.2,18.57,18.57,0,0,1,7.89-8.3,32,32,0,0,1,13.48-3.28c5.06-.28,10.65,0,16.54.12,23.52.5,51.8.88,82.23.79,29.21-.08,56.5-.62,79.18-1.19a65.57,65.57,0,0,1,15.59,1.22,30,30,0,0,1,6.57,2.29A19.69,19.69,0,0,1,272.6,18a20.45,20.45,0,0,1,5.66,9.72,18.22,18.22,0,0,1,.42,2.47,11,11,0,0,1-.1,2.57l-.1.71-.05.35-.15.41c-.2.52-.39,1-.58,1.54-.4,1-.91,2-1.3,2.85l-.08.49,0,.22,0,.1s0,.09.07,0l1.41-.62Z"/></g><g class="cls-5"><path class="cls-4" d="M60.6,36.44l-2.81-1.1-1.57-.6c-.56-.21-1.11-.41-1.67-.6-2.22-.8-4.44-1.51-6.64-2.12a52.11,52.11,0,0,0-13-2,29.64,29.64,0,0,0-11.75,2,28,28,0,0,0-8.7,5.68c-4.63,4.46-6.53,9.65-6.68,13.19a11.13,11.13,0,0,0-.07,1.26c0,.39,0,.76.07,1.1s0,.66.07.95L8,55c.2.92.3,1.4.3,1.4L8,55c0-.23-.09-.49-.15-.77s0-.61,0-.95l0-1.1a11.19,11.19,0,0,1,.08-1.25c.2-3.51,2.17-8.62,6.8-13a27.54,27.54,0,0,1,8.65-5.47,28.69,28.69,0,0,1,11.55-1.83,50.76,50.76,0,0,1,12.81,2.16q3.25.95,6.54,2.18l1.65.63,1.73.68,3.87,1.6,1.93.86,1.42.63.11.05V39.4l0-.1,0-.22-.09-.5c-.38-.81-.9-1.85-1.29-2.85-.19-.5-.38-1-.58-1.54l-.15-.4-.05-.35-.1-.71a11,11,0,0,1-.1-2.57,18.17,18.17,0,0,1,.41-2.47A20.45,20.45,0,0,1,68.52,18a19.67,19.67,0,0,1,5.22-3.62,31.24,31.24,0,0,1,6.57-2.29A65.57,65.57,0,0,1,95.9,10.84c22.69.57,50,1.11,79.2,1.19,30.43.09,58.71-.29,82.23-.79,5.88-.09,11.48-.4,16.54-.12a32,32,0,0,1,13.48,3.28,18.57,18.57,0,0,1,7.89,8.3,8.24,8.24,0,0,1,.5,1.2l.23.6.16.6a7.4,7.4,0,0,1,.27,1.2l.1.59a1.78,1.78,0,0,1,.05.34v.39c0,.52,0,1,0,1.51s-.19,1.06-.28,1.57c-.24,1-.45,2-.71,2.76v.33c0,.07-.06.25.16.06l.9-.61c.61-.41,1.19-.83,1.84-1.18s1.25-.79,1.87-1.07l1.83-.84a26.87,26.87,0,0,1,19.39,0A25.68,25.68,0,0,1,326.84,33a25.3,25.3,0,0,1,2.24,1.85c.34.33.7.64,1,1l.92,1.05a25.34,25.34,0,0,1,4.91,9,27.44,27.44,0,0,1,1.25,8.43,24.2,24.2,0,0,1-.85,6.4L336,61.89l-.38,1-.33.89-.33.71-.62,1.3.64-1.29.34-.71.34-.88.4-1,.36-1.21a24.85,24.85,0,0,0,.95-6.43,27.72,27.72,0,0,0-1.13-8.52,26,26,0,0,0-4.85-9.22l-.93-1.09c-.32-.35-.68-.67-1-1a23.69,23.69,0,0,0-2.27-1.92,26.07,26.07,0,0,0-5.42-3,27.84,27.84,0,0,0-13.1-1.86,28.68,28.68,0,0,0-6.86,1.59l-1.42.6c-.47.2-.89.46-1.34.69a12.86,12.86,0,0,0-1.28.78l-.62.41c-.17.15-.06-.05,0-.16l.13-.36,0-.09a10.48,10.48,0,0,0,.74-3.83V27s0-.19,0-.28l-.06-.67a9.17,9.17,0,0,0-.2-1.35l-.13-.69-.19-.68A11.75,11.75,0,0,0,297,22a20.68,20.68,0,0,0-8.23-10c-4.08-2.58-9.19-4-14.54-4.56-2.68-.31-5.44-.45-8.25-.54l-8.6-.25c-23.51-.65-51.79-1.2-82.22-1.29-29.24-.08-56.44.23-79.26.75a67.43,67.43,0,0,0-16.52,2.2,33.55,33.55,0,0,0-7.18,3,22.35,22.35,0,0,0-5.76,4.57,24.07,24.07,0,0,0-3.75,5.56,19.82,19.82,0,0,0-1.84,5.8,18.21,18.21,0,0,0-.25,2.81,15.38,15.38,0,0,0,.22,2.45,11.52,11.52,0,0,0,1.27,3.53l.4.66.18.29.09.14c0,.05.08.11,0,.07l-.89-.34Z"/></g><text class="cls-6" transform="translate(64.36 111.06)">Calidad e Innovacción</text></svg>