<svg id="Capa_1" data-name="Capa 1" xmlns="http://www.w3.org/2000/svg" xmlns:xlink="http://www.w3.org/1999/xlink" viewBox="0 0 341.13 121.22"><defs><style>.cls-1{fill:none;}.cls-2{font-size:43.08px;font-family:Poppins-SemiBold, Poppins;font-weight:600;letter-spacing:0.17em;}.cls-2,.cls-4,.cls-6{fill:#211915;}.cls-3{clip-path:url(#clip-path);}.cls-5{clip-path:url(#clip-path-2);}.cls-6{font-size:18px;font-family:Poppins-Light, Poppins;font-weight:300;letter-spacing:0.05em;}</style><clipPath id="clip-path"><rect class="cls-1" x="170.57" width="170.55" height="62.3"/></clipPath><clipPath id="clip-path-2"><rect class="cls-1" width="170.55" height="62.3" transform="translate(170.55 62.3) rotate(-180)"/></clipPath></defs><title>5</title><text class="cls-2" transform="translate(15.73 84.5)">AYMUEBLES</text><g class="cls-3"><path class="cls-4" d="M279.5,38.15l3.88-1.61,1.9-.76c.59-.23,1.11-.43,1.67-.63,2.18-.83,4.36-1.57,6.53-2.2a50.72,50.72,0,0,1,12.79-2.2,28.79,28.79,0,0,1,11.54,1.8A27.47,27.47,0,0,1,326.47,38c4.64,4.32,6.61,9.42,6.83,12.94,0,.44.1.85.08,1.25l-.05,1.1c0,.34,0,.66-.05.94l-.15.77-.27,1.41.3-1.4.16-.77c0-.29.05-.6.07-.94l.08-1.11c0-.39-.05-.81-.07-1.26-.14-3.54-2-8.73-6.65-13.2A27.81,27.81,0,0,0,318.06,32a29.54,29.54,0,0,0-11.77-2.08,52,52,0,0,0-13.05,2c-2.21.6-4.43,1.31-6.65,2.1-.55.19-1.13.4-1.65.6l-1.42.52-2.8,1.1-1.4.48-.46.17-.26.09-.07,0,0-.07.1-.15a11.39,11.39,0,0,0,.81-1.43,10.78,10.78,0,0,0,.72-1.72,10.53,10.53,0,0,0,.45-1.8,2.32,2.32,0,0,0,.06-.45c0-.1,0-.35,0-.57a7.82,7.82,0,0,0,0-1.37c0-.46,0-.93-.07-1.4l-.22-1.43a23,23,0,0,0-2-5.83,24.93,24.93,0,0,0-3.91-5.55,23.06,23.06,0,0,0-5.9-4.54,34,34,0,0,0-7.28-3,69.52,69.52,0,0,0-16.56-2.2c-22.72-.64-49.77-1.06-78.85-1-30.33.09-58.52.75-82,1.54l-8.58.3c-2.8.12-5.56.26-8.26.58a35.76,35.76,0,0,0-14.68,4.57,21,21,0,0,0-8.43,10,17.14,17.14,0,0,0-.83,2.77c-.07.45-.18,1-.22,1.33s-.05.73-.07,1.09a11.88,11.88,0,0,0,.67,3.87l.14.38.14.37c0,.1.14.31,0,.16l-.63-.41A10.22,10.22,0,0,0,42,30.35c-.44-.23-.87-.49-1.33-.69l-1.39-.58-1.59-.52A15,15,0,0,0,36,28.11a13,13,0,0,0-1.74-.34c-.58-.08-1.15-.21-1.74-.24a28,28,0,0,0-13.13,1.89,26.77,26.77,0,0,0-5.44,3,26.63,26.63,0,0,0-2.27,1.94c-.34.34-.7.67-1,1l-.93,1.09a25.87,25.87,0,0,0-4.84,9.25,28.1,28.1,0,0,0-1.12,8.53,24.63,24.63,0,0,0,1,6.43l.36,1.21c.14.37.27.72.4,1l.34.88.35.71.64,1.29-.62-1.3-.33-.71-.32-.89-.38-1-.34-1.22A24.7,24.7,0,0,1,4,54.27a27.3,27.3,0,0,1,1.27-8.41,25.33,25.33,0,0,1,4.91-9l.93-1.05c.32-.33.68-.64,1-1A23.57,23.57,0,0,1,14.33,33a25.54,25.54,0,0,1,5.33-2.83,26.94,26.94,0,0,1,12.71-1.58c.56,0,1.11.17,1.66.25a13.65,13.65,0,0,1,1.66.36,15.32,15.32,0,0,1,1.64.46l.82.28.45.16a3.85,3.85,0,0,1,.47.19l1.89.9c.64.31,1.27.73,1.91,1.1s1.24.78,1.85,1.2l.91.62c.22.19.15,0,.16-.07V33.8a1,1,0,0,0,0-.24,27.69,27.69,0,0,1-1-6.1l.2-1.41c.07-.46.21-.8.31-1.21a14.33,14.33,0,0,1,1-2.33,18.46,18.46,0,0,1,8-8,32.89,32.89,0,0,1,13.37-3c2.52-.12,5.16-.07,7.91,0l8.56.24c23.46.65,51.66,1.14,82,1,29-.08,56.18-.71,78.76-1.43a69.05,69.05,0,0,1,15.43,1c4.65,1,8.8,2.75,11.73,5.45a22,22,0,0,1,3.75,4.45,20.55,20.55,0,0,1,2.18,4.87l.31,1.21c.07.4.12.8.18,1.2a6.77,6.77,0,0,1,.1,1.17l0,.67a2.77,2.77,0,0,1-.09.8l-.35,1.58-.08.37c0,.14-.11.29-.17.44l-.33.84c-.4,1.1-.89,2.13-1.32,3.06.05.09.16.16.13.25l-.06.27-.11.48,0,.1s0,.09.07,0l.41-.18.75-.34Z"/></g><g class="cls-5"><path class="cls-4" d="M60.45,36.24l-2.8-1.09-1.41-.53c-.51-.19-1.1-.41-1.65-.59-2.22-.8-4.44-1.51-6.66-2.11a51.69,51.69,0,0,0-13.06-2A29.62,29.62,0,0,0,23.09,32a28,28,0,0,0-8.7,5.7c-4.63,4.48-6.52,9.68-6.67,13.22,0,.44-.08.86-.06,1.26l.08,1.1c0,.34,0,.66.07.95L8,55l.3,1.4L8,55l-.15-.76c0-.29,0-.61,0-.95l-.06-1.1c0-.39.06-.81.09-1.25C8,47.42,10,42.32,14.65,38a27.37,27.37,0,0,1,8.64-5.44,28.74,28.74,0,0,1,11.53-1.81A50.59,50.59,0,0,1,47.6,32.93c2.17.63,4.35,1.37,6.53,2.2.56.2,1.08.4,1.66.63l1.9.75,3.88,1.61,2.21,1,.75.34.42.19.11.05s0,0,0-.05l0-.11-.11-.49-.06-.27c0-.09.08-.16.12-.25-.43-.93-.92-2-1.31-3.06l-.34-.84-.17-.43-.08-.38c-.11-.52-.23-1-.35-1.58a3.07,3.07,0,0,1-.08-.79l0-.67a6.6,6.6,0,0,1,.1-1.17c.06-.4.1-.8.18-1.2l.31-1.22a20.22,20.22,0,0,1,2.17-4.86,22,22,0,0,1,3.75-4.45c2.92-2.7,7.07-4.48,11.72-5.46a69.05,69.05,0,0,1,15.43-1c22.59.72,49.73,1.35,78.78,1.43,30.33.09,58.53-.4,82-1l8.56-.24c2.75-.08,5.39-.13,7.91,0a32.8,32.8,0,0,1,13.36,3,18.48,18.48,0,0,1,8,8,14.33,14.33,0,0,1,1,2.33c.1.41.23.75.31,1.21l.2,1.41a27.09,27.09,0,0,1-1,6.1c0,.14,0,.19,0,.24v.26c0,.08-.06.26.16.07l.91-.62c.61-.42,1.2-.84,1.85-1.2s1.27-.79,1.9-1.1l1.89-.9a4.78,4.78,0,0,1,.48-.19L303,30l.81-.28a16.18,16.18,0,0,1,1.65-.46,13.1,13.1,0,0,1,1.65-.36c.56-.08,1.11-.21,1.67-.25a26.94,26.94,0,0,1,12.71,1.58A25.22,25.22,0,0,1,326.79,33,21.3,21.3,0,0,1,329,34.86c.35.33.7.64,1,1l.93,1.05a25.33,25.33,0,0,1,4.91,9,27.3,27.3,0,0,1,1.27,8.41,24.23,24.23,0,0,1-.84,6.4L336,61.89l-.38,1-.32.89-.34.71-.61,1.3.64-1.29.35-.71.34-.88.4-1,.36-1.21a24.26,24.26,0,0,0,1-6.43,27.76,27.76,0,0,0-1.11-8.53,25.87,25.87,0,0,0-4.84-9.25l-.93-1.09c-.33-.35-.69-.68-1-1a23.86,23.86,0,0,0-2.27-1.94,26.42,26.42,0,0,0-5.43-3,28,28,0,0,0-13.14-1.89c-.58,0-1.15.16-1.73.24a12.74,12.74,0,0,0-1.74.34,15.73,15.73,0,0,0-1.73.45l-1.59.52-1.38.58c-.46.2-.89.46-1.33.69a11.13,11.13,0,0,0-1.28.77l-.62.41c-.16.15-.05-.06,0-.16l.13-.37.15-.38a12.16,12.16,0,0,0,.67-3.87l-.07-1.09c0-.38-.15-.88-.22-1.33a16.24,16.24,0,0,0-.84-2.77,21,21,0,0,0-8.42-10A35.81,35.81,0,0,0,273.94,7c-2.7-.32-5.46-.46-8.26-.58l-8.58-.3c-23.45-.79-51.65-1.45-82-1.54-29.06-.08-56.11.34-78.83,1A70.1,70.1,0,0,0,79.73,7.72a34.7,34.7,0,0,0-7.28,3,23.06,23.06,0,0,0-5.9,4.54,24.61,24.61,0,0,0-3.91,5.55,22.5,22.5,0,0,0-2,5.83c-.07.48-.15,1-.22,1.43s0,.94-.08,1.4a8.93,8.93,0,0,0,0,1.37c0,.22,0,.48.05.57a2.32,2.32,0,0,0,.06.46,10.2,10.2,0,0,0,.45,1.79,9.68,9.68,0,0,0,.71,1.73,12.37,12.37,0,0,0,.81,1.41l.09.15c0,.05.08.11,0,.07l-.25-.1-.46-.16Z"/></g><text class="cls-6" transform="translate(64.36 111.06)">Calidad e Innovacción</text></svg>